<svg width="26" height="26" viewBox="0 0 26 26" fill="none" xmlns="http://www.w3.org/2000/svg">
<path d="M21.0384 12.7292H17.3334C16.8892 12.7292 16.5209 12.3608 16.5209 11.9167V4.34416C16.5209 3.54249 16.835 2.79499 17.3984 2.23166C17.9617 1.66832 18.7092 1.35416 19.5109 1.35416H19.5217C20.8759 1.36499 22.1542 1.89582 23.1292 2.85999C24.1042 3.84582 24.635 5.14582 24.635 6.49999V9.12166C24.6459 11.2775 23.1942 12.7292 21.0384 12.7292ZM18.1459 11.1042H21.0384C22.295 11.1042 23.0209 10.3783 23.0209 9.12166V6.49999C23.0209 5.56832 22.6525 4.67999 21.9917 4.00832C21.3309 3.35832 20.4534 2.98999 19.5217 2.97916C19.5217 2.97916 19.5217 2.97916 19.5109 2.97916C19.1534 2.97916 18.8067 3.11999 18.5467 3.37999C18.2867 3.63999 18.1459 3.97582 18.1459 4.34416V11.1042Z" fill="#7F8FA3"/>
<path d="M9.74974 25.2742C9.24057 25.2742 8.76391 25.0792 8.40641 24.7108L6.60804 22.9017C6.51054 22.8042 6.35892 22.7933 6.25059 22.88L4.39807 24.2667C3.8239 24.7 3.06555 24.7758 2.41555 24.4508C1.76555 24.1258 1.36475 23.4758 1.36475 22.75V6.49999C1.36475 3.22832 3.23891 1.35416 6.51058 1.35416H19.5106C19.9547 1.35416 20.3231 1.72249 20.3231 2.16666C20.3231 2.61082 19.9547 2.97916 19.5106 2.97916C18.7631 2.97916 18.1564 3.58582 18.1564 4.33332V22.75C18.1564 23.4758 17.7555 24.1258 17.1055 24.4508C16.4664 24.7758 15.6973 24.7 15.1231 24.2667L13.2706 22.88C13.1622 22.7933 13.0106 22.815 12.9239 22.9017L11.1039 24.7217C10.7356 25.0792 10.2589 25.2742 9.74974 25.2742ZM6.40221 21.2008C6.90054 21.2008 7.38804 21.385 7.75637 21.7642L9.55474 23.5733C9.61974 23.6383 9.7064 23.6492 9.74974 23.6492C9.79307 23.6492 9.87973 23.6383 9.94473 23.5733L11.7647 21.7533C12.4364 21.0817 13.4981 21.0167 14.2456 21.5908L16.0872 22.9667C16.2064 23.0533 16.3147 23.0208 16.3689 22.9883C16.4231 22.9558 16.5206 22.8908 16.5206 22.75V4.33332C16.5206 3.84582 16.6397 3.37999 16.8456 2.97916H6.49974C4.09474 2.97916 2.9789 4.09499 2.9789 6.49999V22.75C2.9789 22.9017 3.07642 22.9667 3.13058 22.9992C3.19558 23.0317 3.30393 23.0533 3.41226 22.9667L5.26472 21.58C5.60055 21.3308 6.00137 21.2008 6.40221 21.2008Z" fill="#7F8FA3"/>
<path d="M13 10.5625H6.5C6.05583 10.5625 5.6875 10.1942 5.6875 9.75C5.6875 9.30583 6.05583 8.9375 6.5 8.9375H13C13.4442 8.9375 13.8125 9.30583 13.8125 9.75C13.8125 10.1942 13.4442 10.5625 13 10.5625Z" fill="#7F8FA3"/>
<path d="M12.1875 14.8958H7.3125C6.86833 14.8958 6.5 14.5275 6.5 14.0833C6.5 13.6392 6.86833 13.2708 7.3125 13.2708H12.1875C12.6317 13.2708 13 13.6392 13 14.0833C13 14.5275 12.6317 14.8958 12.1875 14.8958Z" fill="#7F8FA3"/>
</svg>
